<?xml version="1.0" encoding="utf-8"?>
<!-- Generator: Adobe Illustrator 24.3.0, SVG Export Plug-In . SVG Version: 6.00 Build 0)  -->
<svg version="1.1" xmlns="http://www.w3.org/2000/svg" xmlns:xlink="http://www.w3.org/1999/xlink" x="0px" y="0px"
	 viewBox="0 0 512 512" style="enable-background:new 0 0 512 512;" xml:space="preserve">
<style type="text/css">
	.st0{fill:#1A1B23;}
	.st1{fill:#FFFFFF;}
	.st2{fill:#FFFFFF;stroke:#1A1B23;stroke-width:20;stroke-miterlimit:10;}
	.st3{fill:#FFFFFF;stroke:#1A1B23;stroke-width:8;stroke-miterlimit:10;}
</style>
<g id="Layer_2">
	<polyline class="st0" points="106.4,412.4 126.7,464.5 367.8,464.6 387.8,433.7 387.8,115.2 106.4,115.2 	"/>
</g>
<g id="Layer_3">
	<rect x="152.1" y="169.9" class="st1" width="194.2" height="256.2"/>
</g>
<g id="Capa_1">
	<g>
		<g>
			<g>
				<polyline class="st2" points="363.8,431.1 416,436.8 453,93.3 317.7,78.7 315.8,51.4 59,69.4 83.2,414 130.4,410.7 				"/>
			</g>
		</g>
	</g>
	<g>
		<g>
			<g>
				<path class="st2" d="M130.4,132.2l7.1,322.6l220.4-0.1l6-322.5H130.4z"/>
			</g>
		</g>
	</g>
	<g>
		<g>
			<g>
				<path class="st3" d="M207.3,193.9c14.8,0,26.5,5.4,33.9,15.1l-16.1,14.4c-4.4-5.6-9.7-8.9-16.5-8.9c-10.6,0-17.7,7.3-17.7,18.9
					s7.1,18.9,17.7,18.9c6.8,0,12.1-3.2,16.5-8.9l16.1,14.4c-7.5,9.7-19.1,15.1-33.9,15.1c-24.3,0-42.1-16.3-42.1-39.5
					C165.2,210.2,183,193.9,207.3,193.9z M325.4,409.9H168.9v-24h156.5L325.4,409.9L325.4,409.9z M325.4,367.2H168.9v-24h156.5
					L325.4,367.2L325.4,367.2z M325.4,324.6H168.9v-24h156.5L325.4,324.6L325.4,324.6z M297.4,271.2h-25.1l-32-75.6h27.4l18,44.2
					l18.5-44.2h25.1L297.4,271.2z"/>
			</g>
		</g>
	</g>
</g>
<g id="Layer_4">
</g>
</svg>
