<?xml version="1.0" encoding="utf-8"?>
<!-- Generator: Adobe Illustrator 24.3.0, SVG Export Plug-In . SVG Version: 6.00 Build 0)  -->
<svg version="1.1" xmlns="http://www.w3.org/2000/svg" xmlns:xlink="http://www.w3.org/1999/xlink" x="0px" y="0px"
	 viewBox="0 0 373.6 373.6" style="enable-background:new 0 0 373.6 373.6;" xml:space="preserve">
<style type="text/css">
	.st0{display:none;}
	.st1{display:inline;fill:#FFA4A4;}
	.st2{fill:#1A1B23;}
	.st3{fill:#FFFFFF;}
</style>
<g id="Layer_2" class="st0">
	<rect x="-145" y="-61" class="st1" width="683" height="632"/>
</g>
<g id="Layer_3">
	<path class="st2" d="M307.4,311H66.2c-34.6,0-62.6-28-62.6-62.6V123.5c0-34.6,28-62.6,62.6-62.6h241.1c34.6,0,62.6,28,62.6,62.6
		v124.9C370,282.9,341.9,311,307.4,311z"/>
</g>
<g id="Capa_1">
	<g>
		<path class="st3" d="M147.3,160.1c1,0.3,1.9,0.9,2.6,1.6l36.2,23.5l139.1-89.5l13.2-8.5c-10.3-8-23.1-12.2-36.2-11.9H70.9
			c-13.1-0.7-26,3.6-36.2,11.9l13.1,8.5L147.3,160.1z"/>
		<path class="st3" d="M37.8,106.3l-12.2-8c-5.2,9.1-7.9,19.5-7.8,30l-0.1,115.1c-0.2,12.3,3.6,24.3,10.7,34.3l10.3-10.6l94.8-98.5
			L37.8,106.3z"/>
		<path class="st3" d="M227.7,176.5l-36.9,23.9l-1.2,0.6H189c-0.6,0.1-1.2,0.1-1.8,0c-0.6,0.1-1.2,0.1-1.8,0h-0.6l-1.7-0.6
			l-36.6-23.8L49.2,277l-10.4,10.8c9.6,6.2,20.8,9.2,32.2,8.8h231.7c11.3,0.1,22.4-3.1,31.9-9.3l-10.2-10.6L227.7,176.5z"/>
		<path class="st3" d="M355.8,243.3V128.5c0.3-10.6-2.3-21-7.6-30.1l-12.3,7.9l-95.6,61.9l94.7,98.6l10.4,10.8
			C352.6,267.6,356.3,255.6,355.8,243.3z"/>
	</g>
</g>
</svg>
