<?xml version="1.0" encoding="utf-8"?>
<!-- Generator: Adobe Illustrator 24.3.0, SVG Export Plug-In . SVG Version: 6.00 Build 0)  -->
<svg version="1.1" xmlns="http://www.w3.org/2000/svg" xmlns:xlink="http://www.w3.org/1999/xlink" x="0px" y="0px"
	 viewBox="0 0 512 512" style="enable-background:new 0 0 512 512;" xml:space="preserve">
<style type="text/css">
	.st0{display:none;}
	.st1{display:inline;fill:#C0C9FF;}
	.st2{fill:#1A1B23;}
	.st3{fill:#FFFFFF;}
</style>
<g id="Layer_2" class="st0">
	<rect x="-52" y="-48" class="st1" width="601" height="601"/>
</g>
<g id="Layer_3">
	<path class="st2" d="M404.9,99.1V41.6c0-20.6-16.7-37.3-37.3-37.3h-224c-20.6,0-37.3,16.7-37.3,37.3v52.9c0,9.9-3.9,19.3-10.8,26.3
		L44,172.6c-8.1,8.1-12.6,19.1-12.6,30.6v250.5c0,29.8,24.2,54,54,54h341.4c29.8,0,54-24.2,54-54V204.3c0-12.1-5.1-23.7-14-31.9
		l-49.8-45.9C409.2,119.5,404.9,109.5,404.9,99.1z"/>
</g>
<g id="Capa_1">
	<g>
		<path class="st3" d="M52.4,208.2v238.7c0,6.3,1.5,12.1,4.1,17.4l126-126C134.2,290,102.6,258.4,52.4,208.2z"/>
		<path class="st3" d="M329.5,338.3l126,126c2.5-5.3,4.1-11.2,4.1-17.4V208.2C411.4,256.4,378.3,289.5,329.5,338.3z"/>
		<path class="st3" d="M256,161.9c-7.5,0-13.6,6.1-13.6,13.6c0,7.5,6.1,13.6,13.6,13.6c9.4,0,11.9-6.4,13.4-14.5
			C268.9,167.5,263.1,161.9,256,161.9z"/>
		<path class="st3" d="M207.3,351.9L75.7,483.6c5.3,2.5,11.2,4.1,17.4,4.1h325.8c6.3,0,12.1-1.5,17.4-4.1L304.7,351.9H207.3z"/>
		<polygon class="st3" points="106.7,142.7 66,183.4 106.7,224.1 		"/>
		<polygon class="st3" points="405.3,142.7 405.3,224.1 446,183.4 		"/>
		<path class="st3" d="M304.7,324.8l73.5-73.5V41.7c0-9.6-7.8-17.4-17.4-17.4H148.7c-8.2,0-14.8,6.6-14.8,14.8v212.1l73.5,73.5
			H304.7z M161,175.5c0-52.4,42.6-95,95-95s95,42.6,95,95c0,34.9-41.5,54-67.9,30.1c-7.2,6.5-16.7,10.6-27.1,10.6
			c-22.5,0-40.7-18.3-40.7-40.7c0-22.5,18.3-40.7,40.7-40.7c22.5,0,40.7,18.3,40.7,40.7c0,17.9,27.1,17.9,27.1,0
			c0-37.4-30.4-67.9-67.9-67.9s-67.9,30.4-67.9,67.9c0,23.2,11.7,44.6,31.4,57.2c20.1,12.9,45.1,14.1,68.5,3.4
			c16.2-7.5,27.7,17.1,11.3,24.7c-31.1,14.3-65.7,13.3-94.5-5.2C177.4,237.9,161,208,161,175.5z"/>
	</g>
</g>
</svg>
