<?xml version="1.0" encoding="utf-8"?>
<!-- Generator: Adobe Illustrator 24.3.0, SVG Export Plug-In . SVG Version: 6.00 Build 0)  -->
<svg version="1.1" xmlns="http://www.w3.org/2000/svg" xmlns:xlink="http://www.w3.org/1999/xlink" x="0px" y="0px"
	 viewBox="0 0 512 512" style="enable-background:new 0 0 512 512;" xml:space="preserve">
<style type="text/css">
	.st0{display:none;}
	.st1{display:inline;fill:#FFA4A4;stroke:#000000;stroke-miterlimit:10;}
	.st2{fill:#FFFFFF;stroke:#000000;stroke-miterlimit:10;}
	.st3{fill:#FFFFFF;}
	.st4{fill:#1A1B23;}
</style>
<g id="Layer_2" class="st0">
	<rect x="-62" y="-48" class="st1" width="622.5" height="622.5"/>
</g>
<g id="Layer_3">
	<path class="st2" d="M163.6,290.4l21.3,20l26.5,22l15.8,12.8L67.9,498H38.2c0,0-11.1-5.7-13-6s-13.6-11.3-13.6-14.4
		c0-3.1,0-26.6,0-26.6l8.4-16.7L89.5,367L163.6,290.4z"/>
	<circle class="st3" cx="322.6" cy="190.1" r="168.9"/>
</g>
<g id="Layer_1">
	<path class="st4" d="M225,290.5c0.5,0.6,1.1,1.2,1.8,1.7c25.4,23.7,59.4,38.2,96.8,38.2c36.9,0,70.5-14.1,95.8-37.3
		c1.4-0.8,2.6-1.9,3.4-3.3c26.3-25.8,42.7-61.7,42.7-101.4c0-78.3-63.7-142-142-142s-142,63.7-142,142
		C181.6,228.5,198.3,264.7,225,290.5z M243.4,280.3c5.1-26.3,28.1-45.5,55.3-45.5h14.8v37.8c0,5.5,4.5,10,10,10s10-4.5,10-10v-37.8
		h14.8c27.3,0,50.2,19.2,55.3,45.5c-21.4,18.7-49.5,30.1-80.1,30.1C292.9,310.4,264.9,299,243.4,280.3z M293.4,177.2h9.6
		c13.2,0,25.7-4.7,35.5-13.2l15.2,9v11.7c0,16.6-13.5,30.2-30.2,30.2c-16.6,0-30.2-13.5-30.2-30.2v-7.5H293.4z M353.7,149.8
		l-11.8-6.9c-4.2-2.5-9.6-1.5-12.7,2.2c-6.5,7.8-16,12.2-26.2,12.2h-9.6v-9.6c0-16.6,13.5-30.2,30.2-30.2
		c16.6,0,30.2,13.5,30.2,30.2v2.1H353.7z M323.5,66.5c67.2,0,122,54.7,122,122c0,28.3-9.7,54.4-25.9,75.1
		c-9.4-24.5-30.9-42.5-57-47.4c7-8.6,11.2-19.6,11.2-31.5v-37c0-27.7-22.5-50.2-50.2-50.2s-50.2,22.5-50.2,50.2v37
		c0,11.9,4.2,22.9,11.2,31.5c-26.1,4.9-47.6,22.9-57,47.4c-16.2-20.7-25.9-46.8-25.9-75.1C201.6,121.2,256.3,66.5,323.5,66.5z"/>
	<path class="st4" d="M322.1,379.9c50.7,0,98.4-19.8,134.3-55.6S512,240.7,512,189.9s-19.8-98.4-55.6-134.3
		C425.7,25,385.2,5.6,342.2,1.1c-42.4-4.5-85.4,5.5-121.3,28.1c-4.7,2.9-6.1,9.1-3.1,13.8c2.9,4.7,9.1,6.1,13.8,3.1
		c67.5-42.5,154.1-32.8,210.6,23.7C474.3,101.9,492,144.6,492,190s-17.7,88.1-49.8,120.2S367.4,360,322,360s-88.1-17.7-120.2-49.8
		c-56.5-56.5-66.3-143.1-23.7-210.6c2.9-4.7,1.5-10.8-3.1-13.8c-4.7-2.9-10.8-1.5-13.8,3.1c-22.6,35.8-32.5,78.9-28,121.3
		c2.7,25.8,10.8,50.7,23.5,73.2L115.9,324l-101,101C5.3,434.6,0,447.4,0,461s5.3,26.4,14.9,36.1S37.4,512,51,512s26.4-5.3,36-14.9
		l101-101l0,0l40.7-40.7C256.8,371.4,288.8,379.9,322.1,379.9z M72.9,482.9C67,488.8,59.3,492,51,492s-16.1-3.2-21.9-9.1
		c-12.1-12.1-12.1-31.7,0-43.8l93.9-93.9l43.8,43.8L72.9,482.9z M180.9,374.9l-43.8-43.8l30.5-30.5c6,8.4,12.7,16.4,20.1,23.7
		c7.4,7.4,15.3,14.1,23.7,20.1L180.9,374.9z"/>
	<path class="st4" d="M194.8,72.7c2.6,0,5.1-1,7.1-2.9c3.9-3.9,3.9-10.2,0-14.1l0,0c-3.9-3.9-10.2-3.9-14.1,0
		c-3.9,3.9-3.9,10.2,0,14.1C189.7,71.7,192.3,72.7,194.8,72.7z"/>
</g>
</svg>
