<?xml version="1.0" encoding="utf-8"?>
<!-- Generator: Adobe Illustrator 24.3.0, SVG Export Plug-In . SVG Version: 6.00 Build 0)  -->
<svg version="1.1" xmlns="http://www.w3.org/2000/svg" xmlns:xlink="http://www.w3.org/1999/xlink" x="0px" y="0px"
	 viewBox="0 0 512 512" style="enable-background:new 0 0 512 512;" xml:space="preserve">
<style type="text/css">
	.st0{fill:#FFFFFF;stroke:#1A1B23;stroke-width:25;stroke-miterlimit:10;}
	.st1{fill:#FFFFFF;stroke:#1A1B23;stroke-width:7;stroke-miterlimit:10;}
	.st2{fill:#FFFFFF;stroke:#1A1B23;stroke-width:15;stroke-miterlimit:10;}
	.st3{fill:none;stroke:#FFFFFF;stroke-width:44;stroke-miterlimit:10;}
</style>
<g id="Layer_2">
</g>
<g id="Capa_1">
	<path class="st0" d="M323.9,157.7c-18,0-32.7-14.7-32.7-32.7V17.5H123.9c-28.3,0-51.4,23.1-51.4,51.4v375.7
		c0,28.3,23.1,51.4,51.4,51.4h261.7C414,496,437,473,437,444.6V157.7H323.9z"/>
	<path class="st1" d="M319.3,125c0,2.6,2.1,4.7,4.7,4.7h106.8c-2.6-4.7-5.9-9.1-9.8-12.8l-90.1-85.3c-3.5-3.3-7.4-6.1-11.6-8.2
		L319.3,125L319.3,125z"/>
	<rect x="141.5" y="202.8" class="st2" width="229" height="29"/>
	<rect x="141.5" y="256.8" class="st2" width="229" height="29"/>
	<rect x="141.5" y="311.9" class="st2" width="229" height="29"/>
	<rect x="141.5" y="368" class="st2" width="86.2" height="29"/>
</g>
<g id="Layer_4">
	<path class="st3" d="M282,30v80.1c0,29.4,23.8,53.3,53.3,53.3h89.2"/>
</g>
<g id="Layer_3">
</g>
</svg>
