<?xml version="1.0" encoding="utf-8"?>
<!-- Generator: Adobe Illustrator 24.3.0, SVG Export Plug-In . SVG Version: 6.00 Build 0)  -->
<svg version="1.1" xmlns="http://www.w3.org/2000/svg" xmlns:xlink="http://www.w3.org/1999/xlink" x="0px" y="0px"
	 viewBox="0 0 512 512" style="enable-background:new 0 0 512 512;" xml:space="preserve">
<style type="text/css">
	.st0{display:none;}
	.st1{display:inline;fill:#8797F4;stroke:#1A1B23;stroke-width:20;stroke-miterlimit:10;}
	.st2{fill:#FFFFFF;stroke:#1A1B23;stroke-width:20;stroke-miterlimit:10;}
</style>
<g id="Layer_2" class="st0">
	<rect x="-98" y="-51" class="st1" width="726" height="665"/>
</g>
<g id="Layer_3">
	<rect x="194.7" y="214.8" class="st2" width="122.8" height="122.8"/>
</g>
<g id="Capa_1">
	<g>
		<g>
			<g>
				<path class="st2" d="M458.5,114.3H357.2V94c0-22.3-18.2-40.5-40.5-40.5H195.3c-22.3,0-40.5,18.2-40.5,40.5v20.2H53.5
					c-22.3,0-40.5,18.2-40.5,40.5v60.7c0,22.3,18.2,40.5,40.5,40.5h162v-10.1c0-5.6,4.5-10.1,10.1-10.1h60.7
					c5.6,0,10.1,4.5,10.1,10.1V256h162c22.3,0,40.5-18.2,40.5-40.5v-60.7C499,132.4,480.8,114.3,458.5,114.3z M316.7,114.3H195.3V94
					h121.5V114.3z"/>
				<path class="st2" d="M493.4,266.9c-3.5-1.7-7.6-1.3-10.6,1c-7.2,5.4-15.6,8.3-24.3,8.3h-162v30.4c0,5.6-4.5,10.1-10.1,10.1
					h-60.7c-5.6,0-10.1-4.5-10.1-10.1v-30.4h-162c-8.7,0-17.1-2.9-24.3-8.3c-3.1-2.3-7.2-2.7-10.6-1c-3.4,1.7-5.6,5.2-5.6,9.1v142
					c0,22.3,18.2,40.5,40.5,40.5h405c22.3,0,40.5-18.2,40.5-40.5V276C499,272.1,496.8,268.6,493.4,266.9z"/>
			</g>
		</g>
	</g>
</g>
</svg>
